Coordinates
version=1
nRows=19
nColumns=33
inDegrees=yes

Units are S.I. units (second, meters, Newtons, ...)
Angles are in degrees.

endheader
time	ground_thorax_rot_x	ground_thorax_rot_y	ground_thorax_rot_z	ground_thorax_tx	ground_thorax_ty	ground_thorax_tz	clav_prot_r	clav_elev_r	scapula_abduction_r	scapula_elevation_r	scapula_upward_rot_r	scapula_winging_r	shoulder_elv_r	plane_of_elev_r	axial_rot_r	elbow_flexion_r	pro_sup_r	wrist_flex_r	wrist_dev_r	clav_prot_l	clav_elev_l	scapula_abduction_l	scapula_elevation_l	scapula_upward_rot_l	scapula_winging_l	shoulder_elv_l	plane_of_elev_l	axial_rot_l	elbow_flexion_l	pro_sup_l	wrist_flex_l	wrist_dev_l	
7.7800	40.056953	8.824107	10.174323	-214.900247	839.593503	2.108368	14.006855	36.752286	38.617955	45.000000	-45.000000	-1885.097183	-3704.435732	142.464955	180.000000	1092.784058	44.408636	22.516034	8.754853	8.418317	-45.000000	-38.995027	45.000000	-45.000000	1176.201279	-1170.193385	134.720499	-180.000000	-348.173559	33.590163	6.398051	-22.814314	
7.7900	40.048972	8.667557	10.007657	-216.449170	840.404391	2.203449	13.939027	36.728792	38.511223	45.000000	-45.000000	-1885.132623	-3704.396656	142.481819	180.000000	1092.799970	44.469299	22.530135	8.656994	8.456817	-45.000000	-39.001855	45.000000	-45.000000	1176.329772	-1170.220257	134.767825	-180.000000	-348.154940	33.983043	6.304678	-22.845359	
7.8000	40.039249	8.505043	9.834199	-217.988933	841.190747	2.303669	13.875169	36.693754	38.401899	45.000000	-45.000000	-1885.169303	-3704.351904	142.489113	180.000000	1092.817175	44.583681	22.541104	8.544907	8.497335	-45.000000	-39.012436	45.000000	-45.000000	1176.458215	-1170.244995	134.809891	-180.000000	-348.138256	34.428675	6.202015	-22.875508	
7.8100	40.024962	8.344240	9.665521	-219.518128	841.949352	2.409701	13.803893	36.668995	38.294034	45.000000	-45.000000	-1885.195505	-3704.308023	142.508338	180.000000	1092.838470	44.756316	22.558956	8.430092	8.533856	-45.000000	-39.021936	45.000000	-45.000000	1176.581153	-1170.270636	134.858768	-180.000000	-348.124620	34.922892	6.084138	-22.899814	
7.8200	40.008022	8.186919	9.498957	-221.035372	842.677323	2.522049	13.731331	36.647012	38.185464	45.000000	-45.000000	-1885.212806	-3704.266073	142.534470	180.000000	1092.858945	44.989142	22.578899	8.309651	8.569143	-45.000000	-39.031071	45.000000	-45.000000	1176.698973	-1170.296901	134.909663	-180.000000	-348.113892	35.464103	5.955915	-22.920796	
7.8300	39.985111	8.037350	9.343431	-222.539589	843.372422	2.640885	13.648777	36.645019	38.079454	45.000000	-45.000000	-1885.211618	-3704.229519	142.583001	180.000000	1092.881479	45.284777	22.608104	8.191631	8.598542	-45.000000	-39.035990	45.000000	-45.000000	1176.808883	-1170.324437	134.972313	-180.000000	-348.106375	36.045791	5.814914	-22.935753	
7.8400	39.961900	7.889665	9.184417	-224.030463	844.033459	2.766000	13.575229	36.628847	37.969661	45.000000	-45.000000	-1885.210719	-3704.195176	142.622888	180.000000	1092.896876	45.643955	22.628924	8.059838	8.631256	-45.000000	-39.044409	45.000000	-45.000000	1176.917242	-1170.351575	135.028997	-180.000000	-348.102769	36.669298	5.673667	-22.951826	
7.8500	39.937392	7.744053	9.030480	-225.508055	844.660308	2.896879	13.498098	36.618688	37.860272	45.000000	-45.000000	-1885.202091	-3704.163743	142.668738	180.000000	1092.913581	46.069593	22.651739	7.923157	8.661192	-45.000000	-39.053132	45.000000	-45.000000	1177.021239	-1170.381662	135.090099	-180.000000	-348.099357	37.327314	5.527048	-22.965178	
7.8600	39.915976	7.600948	8.874008	-226.972652	845.254029	3.032827	13.430003	36.595834	37.744682	45.000000	-45.000000	-1885.197784	-3704.132296	142.703874	180.000000	1092.928577	46.562446	22.666232	7.771074	8.692904	-45.000000	-39.062697	45.000000	-45.000000	1177.123420	-1170.413165	135.143307	-180.000000	-348.095187	38.017540	5.382296	-22.980655	
7.8700	39.891945	7.458703	8.724531	-228.423900	845.816664	3.173065	13.358200	36.580626	37.630488	45.000000	-45.000000	-1885.184870	-3704.105258	142.744438	180.000000	1092.946270	47.121330	22.681168	7.610866	8.721132	-45.000000	-39.070413	45.000000	-45.000000	1177.222592	-1170.444149	135.200401	-180.000000	-348.088158	38.730656	5.235295	-22.994601	
7.8800	39.870233	7.318496	8.576486	-229.860936	846.351418	3.316813	13.296142	36.552527	37.513662	45.000000	-45.000000	-1885.177394	-3704.079246	142.774796	180.000000	1092.962074	47.742502	22.685509	7.433948	8.750967	-45.000000	-39.078439	45.000000	-45.000000	1177.321231	-1170.475098	135.250607	-180.000000	-348.079910	39.463578	5.092330	-23.010586	
7.8900	39.846576	7.180124	8.442017	-231.281839	846.862279	3.463311	13.229637	36.535809	37.401203	45.000000	-45.000000	-1885.161978	-3704.057598	142.813909	180.000000	1092.983138	48.420218	22.691490	7.253474	8.776732	-45.000000	-39.083971	45.000000	-45.000000	1177.416732	-1170.507568	135.308752	-180.000000	-348.068521	40.206755	4.946541	-23.023075	
7.9000	39.827069	7.045180	8.310203	-232.683988	847.353687	3.611836	13.173577	36.508246	37.286357	45.000000	-45.000000	-1885.154327	-3704.035702	142.843181	180.000000	1093.004608	49.143093	22.687299	7.062340	8.803358	-45.000000	-39.088099	45.000000	-45.000000	1177.510528	-1170.541779	135.360363	-180.000000	-348.056034	40.957721	4.805479	-23.036847	
7.9100	39.804503	6.909610	8.185745	-234.064164	847.829856	3.761653	13.116593	36.487277	37.173626	45.000000	-45.000000	-1885.140279	-3704.018417	142.872053	180.000000	1093.027577	49.896471	22.681741	6.873758	8.827221	-45.000000	-39.091992	45.000000	-45.000000	1177.600865	-1170.574219	135.416262	-180.000000	-348.044183	41.709080	4.665784	-23.048219	
7.9200	39.786162	6.779581	8.062871	-235.419434	848.294264	3.911968	13.071776	36.453440	37.058664	45.000000	-45.000000	-1885.135588	-3704.001860	142.888439	180.000000	1093.046556	50.664305	22.665066	6.684724	8.853217	-45.000000	-39.094942	45.000000	-45.000000	1177.688747	-1170.608883	135.464588	-180.000000	-348.033179	42.459902	4.532252	-23.060542	
7.9300	39.767959	6.653332	7.945501	-236.747565	848.749118	4.061819	13.028782	36.421324	36.943365	45.000000	-45.000000	-1885.129804	-3703.989110	142.901200	180.000000	1093.064649	51.431385	22.645588	6.505565	8.878478	-45.000000	-39.096625	45.000000	-45.000000	1177.772710	-1170.645720	135.513149	-180.000000	-348.022955	43.205691	4.401793	-23.071093	
7.9400	39.754564	6.534122	7.828788	-238.047732	849.195249	4.210049	12.992346	36.382982	36.825312	45.000000	-45.000000	-1885.130112	-3703.976722	142.906577	180.000000	1093.080595	52.183406	22.619201	6.333793	8.903652	-45.000000	-39.092918	45.000000	-45.000000	1177.852872	-1170.686683	135.554283	-180.000000	-348.011494	43.942685	4.277152	-23.082493	
7.9500	39.740367	6.416297	7.714037	-239.320262	849.632110	4.355261	12.953201	36.350955	36.706772	45.000000	-45.000000	-1885.124017	-3703.967719	142.912008	180.000000	1093.096718	52.910880	22.593848	6.175351	8.926177	-45.000000	-39.086662	45.000000	-45.000000	1177.928713	-1170.728564	135.595527	-180.000000	-347.999766	44.664200	4.157141	-23.092881	
7.9600	39.729896	6.304001	7.602480	-240.566364	850.058085	4.495907	12.916509	36.317113	36.588097	45.000000	-45.000000	-1885.118379	-3703.960457	142.918087	180.000000	1093.111754	53.611693	22.565977	6.025673	8.947661	-45.000000	-39.075723	45.000000	-45.000000	1178.001347	-1170.775245	135.634112	-180.000000	-347.986278	45.366753	4.043078	-23.103382	
